<mxfile host="app.diagrams.net" agent="Mozilla/5.0 (Macintosh; Intel Mac OS X 10_15_7) AppleWebKit/605.1.15 (KHTML, like Gecko) Version/17.5 Safari/605.1.15" version="24.7.6">
  <diagram name="Página-1" id="ietrwboAWjoK2SEABheK">
    <mxGraphModel dx="2004" dy="1190" grid="1" gridSize="10" guides="1" tooltips="1" connect="1" arrows="1" fold="1" page="1" pageScale="1" pageWidth="827" pageHeight="1169" math="0" shadow="0">
      <root>
        <mxCell id="0" />
        <mxCell id="1" parent="0" />
        <mxCell id="X8teT1f3it2O9fZ0N6ZG-63" value="" style="rounded=0;whiteSpace=wrap;html=1;dashed=1;strokeColor=#007FFF;" parent="1" vertex="1">
          <mxGeometry x="490" y="690" width="980" height="720" as="geometry" />
        </mxCell>
        <mxCell id="X8teT1f3it2O9fZ0N6ZG-7" style="edgeStyle=orthogonalEdgeStyle;rounded=0;orthogonalLoop=1;jettySize=auto;html=1;exitX=1;exitY=0.5;exitDx=0;exitDy=0;exitPerimeter=0;" parent="1" source="X8teT1f3it2O9fZ0N6ZG-73" edge="1">
          <mxGeometry relative="1" as="geometry">
            <mxPoint x="1240" y="509" as="targetPoint" />
            <mxPoint x="414" y="428.9999999999999" as="sourcePoint" />
          </mxGeometry>
        </mxCell>
        <mxCell id="X8teT1f3it2O9fZ0N6ZG-48" style="edgeStyle=orthogonalEdgeStyle;rounded=0;orthogonalLoop=1;jettySize=auto;html=1;entryX=0;entryY=0.5;entryDx=0;entryDy=0;" parent="1" source="X8teT1f3it2O9fZ0N6ZG-35" target="X8teT1f3it2O9fZ0N6ZG-66" edge="1">
          <mxGeometry relative="1" as="geometry">
            <mxPoint x="1000" y="429" as="targetPoint" />
            <mxPoint x="300" y="509" as="sourcePoint" />
            <Array as="points" />
          </mxGeometry>
        </mxCell>
        <mxCell id="X8teT1f3it2O9fZ0N6ZG-6" value="Repositório&lt;div&gt;&lt;div&gt;Codebase&lt;/div&gt;&lt;/div&gt;" style="verticalLabelPosition=bottom;html=1;verticalAlign=top;align=center;strokeColor=none;fillColor=#00BEF2;shape=mxgraph.azure.github_code;pointerEvents=1;" parent="1" vertex="1">
          <mxGeometry x="150" y="469" width="80" height="80" as="geometry" />
        </mxCell>
        <mxCell id="X8teT1f3it2O9fZ0N6ZG-11" style="edgeStyle=orthogonalEdgeStyle;rounded=0;orthogonalLoop=1;jettySize=auto;html=1;" parent="1" edge="1" source="bLZngkydeDM3DnpJ3Xjx-12">
          <mxGeometry relative="1" as="geometry">
            <mxPoint x="1240" y="40" as="targetPoint" />
            <mxPoint x="230" y="40" as="sourcePoint" />
            <Array as="points" />
          </mxGeometry>
        </mxCell>
        <mxCell id="X8teT1f3it2O9fZ0N6ZG-53" style="edgeStyle=orthogonalEdgeStyle;rounded=0;orthogonalLoop=1;jettySize=auto;html=1;exitX=1;exitY=0;exitDx=0;exitDy=0;" parent="1" source="X8teT1f3it2O9fZ0N6ZG-16" edge="1">
          <mxGeometry relative="1" as="geometry">
            <mxPoint x="1240" y="120" as="targetPoint" />
            <Array as="points">
              <mxPoint x="240" y="40" />
              <mxPoint x="240" y="120" />
            </Array>
          </mxGeometry>
        </mxCell>
        <mxCell id="X8teT1f3it2O9fZ0N6ZG-55" style="edgeStyle=orthogonalEdgeStyle;rounded=0;orthogonalLoop=1;jettySize=auto;html=1;exitX=1;exitY=0;exitDx=0;exitDy=0;" parent="1" source="X8teT1f3it2O9fZ0N6ZG-16" edge="1">
          <mxGeometry relative="1" as="geometry">
            <mxPoint x="1240" y="200" as="targetPoint" />
            <Array as="points">
              <mxPoint x="240" y="40" />
              <mxPoint x="240" y="200" />
            </Array>
          </mxGeometry>
        </mxCell>
        <mxCell id="X8teT1f3it2O9fZ0N6ZG-16" value="&lt;span style=&quot;background-color: rgb(251, 251, 251);&quot;&gt;Repositório&lt;/span&gt;&lt;div&gt;de releases&lt;/div&gt;" style="shape=image;html=1;verticalAlign=top;verticalLabelPosition=bottom;labelBackgroundColor=#ffffff;imageAspect=0;aspect=fixed;image=https://cdn1.iconfinder.com/data/icons/ionicons-sharp-vol-2/512/rocket-sharp-128.png" parent="1" vertex="1">
          <mxGeometry x="145" y="40" width="80" height="80" as="geometry" />
        </mxCell>
        <mxCell id="X8teT1f3it2O9fZ0N6ZG-21" value="release/desenv" style="text;html=1;align=center;verticalAlign=middle;resizable=0;points=[];autosize=1;strokeColor=none;fillColor=none;" parent="1" vertex="1">
          <mxGeometry x="262.4" y="205" width="100" height="30" as="geometry" />
        </mxCell>
        <mxCell id="X8teT1f3it2O9fZ0N6ZG-22" value="release/homolog" style="text;html=1;align=center;verticalAlign=middle;resizable=0;points=[];autosize=1;strokeColor=none;fillColor=none;" parent="1" vertex="1">
          <mxGeometry x="261.6" y="123" width="110" height="30" as="geometry" />
        </mxCell>
        <mxCell id="X8teT1f3it2O9fZ0N6ZG-23" value="release/prod" style="text;html=1;align=center;verticalAlign=middle;resizable=0;points=[];autosize=1;strokeColor=none;fillColor=none;" parent="1" vertex="1">
          <mxGeometry x="260.6" y="40" width="90" height="30" as="geometry" />
        </mxCell>
        <mxCell id="X8teT1f3it2O9fZ0N6ZG-24" value="" style="image;aspect=fixed;html=1;points=[];align=center;fontSize=12;image=img/lib/azure2/general/Branch.svg;" parent="1" vertex="1">
          <mxGeometry x="249.6" y="45" width="20" height="20" as="geometry" />
        </mxCell>
        <mxCell id="X8teT1f3it2O9fZ0N6ZG-25" value="" style="image;aspect=fixed;html=1;points=[];align=center;fontSize=12;image=img/lib/azure2/general/Branch.svg;" parent="1" vertex="1">
          <mxGeometry x="249.6" y="128" width="20" height="20" as="geometry" />
        </mxCell>
        <mxCell id="X8teT1f3it2O9fZ0N6ZG-26" value="" style="image;aspect=fixed;html=1;points=[];align=center;fontSize=12;image=img/lib/azure2/general/Branch.svg;" parent="1" vertex="1">
          <mxGeometry x="248.80000000000004" y="210" width="20" height="20" as="geometry" />
        </mxCell>
        <mxCell id="X8teT1f3it2O9fZ0N6ZG-28" value="" style="image;aspect=fixed;html=1;points=[];align=center;fontSize=12;image=img/lib/azure2/general/Branch.svg;" parent="1" vertex="1">
          <mxGeometry x="248.8" y="524" width="20" height="20" as="geometry" />
        </mxCell>
        <mxCell id="X8teT1f3it2O9fZ0N6ZG-31" value="HEAD" style="text;html=1;align=center;verticalAlign=middle;resizable=0;points=[];autosize=1;strokeColor=none;fillColor=none;" parent="1" vertex="1">
          <mxGeometry x="257.2" y="519" width="60" height="30" as="geometry" />
        </mxCell>
        <mxCell id="X8teT1f3it2O9fZ0N6ZG-32" value="" style="image;aspect=fixed;html=1;points=[];align=center;fontSize=12;image=img/lib/azure2/general/Branch.svg;" parent="1" vertex="1">
          <mxGeometry x="349.59999999999997" y="444" width="20" height="20" as="geometry" />
        </mxCell>
        <mxCell id="X8teT1f3it2O9fZ0N6ZG-33" value="feature/1" style="text;html=1;align=center;verticalAlign=middle;resizable=0;points=[];autosize=1;strokeColor=none;fillColor=none;" parent="1" vertex="1">
          <mxGeometry x="360.2" y="439" width="70" height="30" as="geometry" />
        </mxCell>
        <mxCell id="X8teT1f3it2O9fZ0N6ZG-58" style="edgeStyle=orthogonalEdgeStyle;rounded=0;orthogonalLoop=1;jettySize=auto;html=1;entryX=0;entryY=0.5;entryDx=0;entryDy=0;endArrow=none;endFill=0;strokeColor=#874EFE;strokeWidth=2;" parent="1" source="X8teT1f3it2O9fZ0N6ZG-39" target="X8teT1f3it2O9fZ0N6ZG-59" edge="1">
          <mxGeometry relative="1" as="geometry">
            <Array as="points">
              <mxPoint x="575" y="155" />
            </Array>
          </mxGeometry>
        </mxCell>
        <mxCell id="X8teT1f3it2O9fZ0N6ZG-39" value="1.0.1-rc" style="rounded=1;whiteSpace=wrap;html=1;" parent="1" vertex="1">
          <mxGeometry x="540" y="180" width="70" height="40" as="geometry" />
        </mxCell>
        <mxCell id="X8teT1f3it2O9fZ0N6ZG-49" value="" style="edgeStyle=orthogonalEdgeStyle;rounded=0;orthogonalLoop=1;jettySize=auto;html=1;" parent="1" target="X8teT1f3it2O9fZ0N6ZG-35" edge="1">
          <mxGeometry relative="1" as="geometry">
            <mxPoint x="1000" y="429" as="targetPoint" />
            <mxPoint x="300" y="509" as="sourcePoint" />
            <Array as="points">
              <mxPoint x="340" y="509" />
            </Array>
          </mxGeometry>
        </mxCell>
        <mxCell id="X8teT1f3it2O9fZ0N6ZG-50" style="edgeStyle=orthogonalEdgeStyle;rounded=0;orthogonalLoop=1;jettySize=auto;html=1;entryX=0.5;entryY=1;entryDx=0;entryDy=0;strokeColor=#874EFE;strokeWidth=2;" parent="1" source="X8teT1f3it2O9fZ0N6ZG-9" target="X8teT1f3it2O9fZ0N6ZG-39" edge="1">
          <mxGeometry relative="1" as="geometry">
            <mxPoint x="510" y="270" as="targetPoint" />
            <Array as="points">
              <mxPoint x="485" y="290" />
              <mxPoint x="505" y="290" />
            </Array>
          </mxGeometry>
        </mxCell>
        <mxCell id="X8teT1f3it2O9fZ0N6ZG-35" value="1.0.1-rc" style="rounded=1;whiteSpace=wrap;html=1;" parent="1" vertex="1">
          <mxGeometry x="450.2" y="409" width="70" height="40" as="geometry" />
        </mxCell>
        <mxCell id="X8teT1f3it2O9fZ0N6ZG-57" value="1.0.1-rc" style="rounded=1;whiteSpace=wrap;html=1;" parent="1" vertex="1">
          <mxGeometry x="640" y="100" width="70" height="40" as="geometry" />
        </mxCell>
        <mxCell id="bLZngkydeDM3DnpJ3Xjx-2" style="edgeStyle=orthogonalEdgeStyle;rounded=0;orthogonalLoop=1;jettySize=auto;html=1;entryX=0.5;entryY=1;entryDx=0;entryDy=0;strokeColor=#874EFE;strokeWidth=2;" edge="1" parent="1" source="X8teT1f3it2O9fZ0N6ZG-59" target="X8teT1f3it2O9fZ0N6ZG-57">
          <mxGeometry relative="1" as="geometry">
            <Array as="points">
              <mxPoint x="675" y="155" />
            </Array>
          </mxGeometry>
        </mxCell>
        <mxCell id="X8teT1f3it2O9fZ0N6ZG-59" value="" style="shape=image;html=1;verticalAlign=top;verticalLabelPosition=bottom;labelBackgroundColor=#ffffff;imageAspect=0;aspect=fixed;image=https://cdn1.iconfinder.com/data/icons/unicons-line-vol-3/24/github-alt-128.png" parent="1" vertex="1">
          <mxGeometry x="600" y="140" width="30" height="30" as="geometry" />
        </mxCell>
        <mxCell id="X8teT1f3it2O9fZ0N6ZG-71" style="edgeStyle=orthogonalEdgeStyle;rounded=0;orthogonalLoop=1;jettySize=auto;html=1;entryX=0;entryY=0.5;entryDx=0;entryDy=0;endArrow=none;endFill=0;" parent="1" source="X8teT1f3it2O9fZ0N6ZG-66" target="X8teT1f3it2O9fZ0N6ZG-72" edge="1">
          <mxGeometry relative="1" as="geometry">
            <mxPoint x="825" y="509" as="targetPoint" />
            <Array as="points">
              <mxPoint x="774" y="461" />
              <mxPoint x="804" y="461" />
            </Array>
          </mxGeometry>
        </mxCell>
        <mxCell id="X8teT1f3it2O9fZ0N6ZG-66" value="1.0.1" style="rounded=1;whiteSpace=wrap;html=1;" parent="1" vertex="1">
          <mxGeometry x="734" y="409" width="70" height="40" as="geometry" />
        </mxCell>
        <mxCell id="X8teT1f3it2O9fZ0N6ZG-67" value="" style="edgeStyle=orthogonalEdgeStyle;rounded=0;orthogonalLoop=1;jettySize=auto;html=1;entryX=0.5;entryY=1;entryDx=0;entryDy=0;endArrow=none;endFill=0;strokeColor=#874EFE;strokeWidth=2;" parent="1" source="X8teT1f3it2O9fZ0N6ZG-35" target="X8teT1f3it2O9fZ0N6ZG-9" edge="1">
          <mxGeometry relative="1" as="geometry">
            <mxPoint x="505" y="123" as="targetPoint" />
            <mxPoint x="485" y="323" as="sourcePoint" />
          </mxGeometry>
        </mxCell>
        <mxCell id="X8teT1f3it2O9fZ0N6ZG-9" value="" style="shape=image;html=1;verticalAlign=top;verticalLabelPosition=bottom;labelBackgroundColor=#ffffff;imageAspect=0;aspect=fixed;image=https://cdn1.iconfinder.com/data/icons/unicons-line-vol-3/24/github-alt-128.png" parent="1" vertex="1">
          <mxGeometry x="470.2" y="344" width="30" height="30" as="geometry" />
        </mxCell>
        <mxCell id="X8teT1f3it2O9fZ0N6ZG-69" style="edgeStyle=orthogonalEdgeStyle;rounded=0;orthogonalLoop=1;jettySize=auto;html=1;" parent="1" source="X8teT1f3it2O9fZ0N6ZG-66" edge="1">
          <mxGeometry relative="1" as="geometry">
            <mxPoint x="1230" y="429" as="targetPoint" />
          </mxGeometry>
        </mxCell>
        <mxCell id="bLZngkydeDM3DnpJ3Xjx-5" style="edgeStyle=orthogonalEdgeStyle;rounded=0;orthogonalLoop=1;jettySize=auto;html=1;entryX=0.25;entryY=0;entryDx=0;entryDy=0;exitX=1;exitY=0.5;exitDx=0;exitDy=0;" edge="1" parent="1" source="X8teT1f3it2O9fZ0N6ZG-72" target="X8teT1f3it2O9fZ0N6ZG-73">
          <mxGeometry relative="1" as="geometry" />
        </mxCell>
        <mxCell id="X8teT1f3it2O9fZ0N6ZG-72" value="" style="shape=image;html=1;verticalAlign=top;verticalLabelPosition=bottom;labelBackgroundColor=#ffffff;imageAspect=0;aspect=fixed;image=https://cdn0.iconfinder.com/data/icons/phosphor-bold-vol-3-1/256/git-pull-request-duotone-128.png" parent="1" vertex="1">
          <mxGeometry x="809" y="449" width="25" height="25" as="geometry" />
        </mxCell>
        <mxCell id="X8teT1f3it2O9fZ0N6ZG-74" value="" style="edgeStyle=orthogonalEdgeStyle;rounded=0;orthogonalLoop=1;jettySize=auto;html=1;exitX=1;exitY=0.5;exitDx=0;exitDy=0;exitPerimeter=0;" parent="1" source="X8teT1f3it2O9fZ0N6ZG-6" target="X8teT1f3it2O9fZ0N6ZG-73" edge="1">
          <mxGeometry relative="1" as="geometry">
            <mxPoint x="1000" y="509" as="targetPoint" />
            <mxPoint x="230" y="509" as="sourcePoint" />
          </mxGeometry>
        </mxCell>
        <mxCell id="X8teT1f3it2O9fZ0N6ZG-73" value="1.0.1" style="rounded=1;whiteSpace=wrap;html=1;" parent="1" vertex="1">
          <mxGeometry x="834" y="489" width="70" height="40" as="geometry" />
        </mxCell>
        <mxCell id="X8teT1f3it2O9fZ0N6ZG-70" value="" style="shape=image;html=1;verticalAlign=top;verticalLabelPosition=bottom;labelBackgroundColor=#ffffff;imageAspect=0;aspect=fixed;image=https://cdn1.iconfinder.com/data/icons/unicons-line-vol-3/24/github-alt-128.png" parent="1" vertex="1">
          <mxGeometry x="874" y="440" width="30" height="30" as="geometry" />
        </mxCell>
        <mxCell id="bLZngkydeDM3DnpJ3Xjx-13" value="" style="edgeStyle=orthogonalEdgeStyle;rounded=0;orthogonalLoop=1;jettySize=auto;html=1;strokeColor=#874EFE;strokeWidth=2;exitX=0.5;exitY=0;exitDx=0;exitDy=0;entryX=0;entryY=0.5;entryDx=0;entryDy=0;" edge="1" parent="1" source="X8teT1f3it2O9fZ0N6ZG-70" target="bLZngkydeDM3DnpJ3Xjx-15">
          <mxGeometry relative="1" as="geometry">
            <mxPoint x="835" y="300" as="sourcePoint" />
            <mxPoint x="880" y="40" as="targetPoint" />
            <Array as="points">
              <mxPoint x="889" y="90" />
            </Array>
          </mxGeometry>
        </mxCell>
        <mxCell id="bLZngkydeDM3DnpJ3Xjx-17" style="edgeStyle=orthogonalEdgeStyle;rounded=0;orthogonalLoop=1;jettySize=auto;html=1;entryX=0.5;entryY=1;entryDx=0;entryDy=0;strokeColor=#000000;strokeWidth=2;" edge="1" parent="1" source="bLZngkydeDM3DnpJ3Xjx-15" target="bLZngkydeDM3DnpJ3Xjx-12">
          <mxGeometry relative="1" as="geometry" />
        </mxCell>
        <mxCell id="bLZngkydeDM3DnpJ3Xjx-15" value="" style="shape=image;html=1;verticalAlign=top;verticalLabelPosition=bottom;labelBackgroundColor=#ffffff;imageAspect=0;aspect=fixed;image=https://cdn0.iconfinder.com/data/icons/phosphor-bold-vol-3-1/256/git-pull-request-duotone-128.png" vertex="1" parent="1">
          <mxGeometry x="945" y="70" width="40" height="40" as="geometry" />
        </mxCell>
        <mxCell id="bLZngkydeDM3DnpJ3Xjx-21" value="" style="edgeStyle=orthogonalEdgeStyle;rounded=0;orthogonalLoop=1;jettySize=auto;html=1;" edge="1" parent="1" target="bLZngkydeDM3DnpJ3Xjx-12">
          <mxGeometry relative="1" as="geometry">
            <mxPoint x="1240" y="40" as="targetPoint" />
            <mxPoint x="230" y="40" as="sourcePoint" />
            <Array as="points" />
          </mxGeometry>
        </mxCell>
        <mxCell id="bLZngkydeDM3DnpJ3Xjx-12" value="1.0.1" style="rounded=1;whiteSpace=wrap;html=1;" vertex="1" parent="1">
          <mxGeometry x="1015" y="20" width="70" height="40" as="geometry" />
        </mxCell>
      </root>
    </mxGraphModel>
  </diagram>
</mxfile>
